<svg width="504" height="243" viewBox="0 0 504 243" fill="none" xmlns="http://www.w3.org/2000/svg">
<g clip-path="url(#clip0_7_2)">
<path d="M188.51 156.761C188.51 173.149 176.242 186.943 159.965 188.854V188.854C129.798 192.396 111.853 156.134 132.967 134.299L171.907 94.0281C173.727 92.1461 176.233 91.0834 178.851 91.0834V91.0834C184.186 91.0834 188.51 95.408 188.51 100.743L188.51 156.761Z" fill="#1F7D53"/>
<path d="M98.7783 84.8822C127.078 81.5594 143.913 115.577 124.105 136.061L85.165 176.331C83.722 177.824 81.7351 178.666 79.6592 178.666C75.4291 178.666 72 175.237 72 171.007V114.99C72 99.6154 83.5091 86.6751 98.7783 84.8822Z" fill="white" stroke="#1F7D53" stroke-width="4"/>
<path d="M101 103.5C104.079 103.5 106.5 105.779 106.5 108.5C106.5 111.221 104.079 113.5 101 113.5C97.9206 113.5 95.5 111.221 95.5 108.5C95.5 105.779 97.9206 103.5 101 103.5Z" fill="#1F7D53" stroke="black"/>
<path d="M234.733 184.909C228.852 184.909 223.81 184.099 219.605 182.48C215.429 180.889 212.105 178.716 209.634 175.96C207.162 173.205 205.557 170.108 204.818 166.67L221.608 164.412C222.119 165.719 222.929 166.94 224.037 168.077C225.145 169.213 226.608 170.122 228.426 170.804C230.273 171.514 232.517 171.869 235.159 171.869C239.108 171.869 242.361 170.903 244.918 168.972C247.503 167.068 248.795 163.872 248.795 159.384V147.409H248.028C247.233 149.227 246.04 150.946 244.449 152.565C242.858 154.185 240.812 155.506 238.312 156.528C235.812 157.551 232.83 158.062 229.364 158.062C224.449 158.062 219.974 156.926 215.94 154.653C211.935 152.352 208.739 148.844 206.352 144.128C203.994 139.384 202.815 133.389 202.815 126.145C202.815 118.73 204.023 112.537 206.438 107.565C208.852 102.594 212.063 98.8722 216.068 96.4006C220.102 93.929 224.52 92.6932 229.321 92.6932C232.986 92.6932 236.054 93.3182 238.526 94.5682C240.997 95.7898 242.986 97.3239 244.491 99.1705C246.026 100.989 247.205 102.778 248.028 104.54H248.71V93.5455H266.736V159.639C266.736 165.207 265.372 169.866 262.645 173.616C259.918 177.366 256.139 180.179 251.31 182.054C246.509 183.957 240.983 184.909 234.733 184.909ZM235.116 144.426C238.043 144.426 240.514 143.702 242.531 142.253C244.577 140.776 246.139 138.673 247.219 135.946C248.327 133.19 248.881 129.895 248.881 126.06C248.881 122.224 248.341 118.901 247.261 116.088C246.182 113.247 244.619 111.045 242.574 109.483C240.528 107.92 238.043 107.139 235.116 107.139C232.134 107.139 229.619 107.949 227.574 109.568C225.528 111.159 223.98 113.375 222.929 116.216C221.878 119.057 221.352 122.338 221.352 126.06C221.352 129.838 221.878 133.105 222.929 135.861C224.009 138.588 225.557 140.705 227.574 142.21C229.619 143.687 232.134 144.426 235.116 144.426ZM305.301 160.065C300.33 160.065 295.827 158.787 291.793 156.23C287.787 153.645 284.605 149.852 282.247 144.852C279.918 139.824 278.753 133.659 278.753 126.358C278.753 118.858 279.96 112.622 282.375 107.651C284.79 102.651 288 98.9148 292.006 96.4432C296.04 93.9432 300.457 92.6932 305.259 92.6932C308.923 92.6932 311.977 93.3182 314.42 94.5682C316.892 95.7898 318.881 97.3239 320.386 99.1705C321.92 100.989 323.085 102.778 323.881 104.54H324.435V71.7273H342.545V159H324.648V148.517H323.881C323.028 150.335 321.821 152.139 320.259 153.929C318.724 155.69 316.722 157.153 314.25 158.318C311.807 159.483 308.824 160.065 305.301 160.065ZM311.054 145.619C313.98 145.619 316.452 144.824 318.469 143.233C320.514 141.614 322.077 139.355 323.156 136.457C324.264 133.56 324.818 130.165 324.818 126.273C324.818 122.381 324.278 119 323.199 116.131C322.119 113.261 320.557 111.045 318.511 109.483C316.466 107.92 313.98 107.139 311.054 107.139C308.071 107.139 305.557 107.949 303.511 109.568C301.466 111.187 299.918 113.432 298.866 116.301C297.815 119.17 297.29 122.494 297.29 126.273C297.29 130.08 297.815 133.446 298.866 136.372C299.946 139.27 301.494 141.543 303.511 143.19C305.557 144.81 308.071 145.619 311.054 145.619ZM373.92 140.165L373.962 118.389H376.604L397.57 93.5455H418.408L390.241 126.443H385.937L373.92 140.165ZM357.471 159V71.7273H375.624V159H357.471ZM398.38 159L379.119 130.491L391.221 117.665L419.644 159H398.38Z" fill="#1F7D53"/>
</g>
<defs>
<clipPath id="clip0_7_2">
<rect width="504" height="243" fill="white"/>
</clipPath>
</defs>
</svg>
