<svg width="434" height="342" viewBox="0 0 434 342" fill="none" xmlns="http://www.w3.org/2000/svg">
<g clip-path="url(#clip0_1_26)">
<path d="M363 226.545C363 270.521 330.079 307.533 286.404 312.661V312.661C205.456 322.165 157.304 224.864 213.96 166.272L318.449 58.2139C323.332 53.1637 330.056 50.3121 337.081 50.3121V50.3121C351.396 50.3121 363 61.9163 363 76.2309V226.545Z" fill="white"/>
<path d="M45 114.459C45 70.4833 77.9206 33.4713 121.596 28.3433V28.3433C202.544 18.8392 250.696 116.14 194.04 174.732L89.5514 282.79C84.6681 287.84 77.9439 290.692 70.9188 290.692V290.692C56.6043 290.692 45 279.088 45 264.773V114.459Z" fill="#1F7D53"/>
<path d="M128.182 82.7882C136.84 82.7882 143.783 89.2116 143.783 97.046C143.783 104.881 136.84 111.305 128.182 111.305C119.525 111.305 112.583 104.88 112.583 97.046C112.583 89.2117 119.525 82.7883 128.182 82.7882Z" fill="black" stroke="black"/>
</g>
<defs>
<clipPath id="clip0_1_26">
<rect width="434" height="342" fill="white"/>
</clipPath>
</defs>
</svg>
