<svg width="504" height="243" viewBox="0 0 504 243" fill="none" xmlns="http://www.w3.org/2000/svg">
<g clip-path="url(#clip0_1_26)">
<path d="M188.51 156.761C188.51 173.149 176.242 186.943 159.965 188.854C129.798 192.396 111.853 156.134 132.967 134.299L171.907 94.0281C173.727 92.1461 176.233 91.0834 178.851 91.0834C184.186 91.0834 188.51 95.408 188.51 100.743L188.51 156.761Z" fill="white"/>
<path d="M70 114.989C70 98.6007 82.2686 84.8072 98.5455 82.8962C128.713 79.3542 146.657 115.616 125.543 137.452L86.6031 177.722C84.7832 179.604 82.2773 180.667 79.6593 180.667C74.3246 180.667 70 176.342 70 171.007V114.989Z" fill="#1F7D53"/>
<path d="M101 103.5C104.079 103.5 106.5 105.779 106.5 108.5C106.5 111.221 104.079 113.5 101 113.5C97.9206 113.5 95.5 111.221 95.5 108.5C95.5 105.779 97.9206 103.5 101 103.5Z" fill="black" stroke="black"/>
<mask id="path-4-outside-1_1_26" maskUnits="userSpaceOnUse" x="201" y="70" width="221" height="116" fill="black">
<rect fill="white" x="201" y="70" width="221" height="116"/>
<path d="M234.733 184.909C228.852 184.909 223.81 184.099 219.605 182.48C215.429 180.889 212.105 178.716 209.634 175.96C207.162 173.205 205.557 170.108 204.818 166.67L221.608 164.412C222.119 165.719 222.929 166.94 224.037 168.077C225.145 169.213 226.608 170.122 228.426 170.804C230.273 171.514 232.517 171.869 235.159 171.869C239.108 171.869 242.361 170.903 244.918 168.972C247.503 167.068 248.795 163.872 248.795 159.384V147.409H248.028C247.233 149.227 246.04 150.946 244.449 152.565C242.858 154.185 240.812 155.506 238.312 156.528C235.812 157.551 232.83 158.062 229.364 158.062C224.449 158.062 219.974 156.926 215.94 154.653C211.935 152.352 208.739 148.844 206.352 144.128C203.994 139.384 202.815 133.389 202.815 126.145C202.815 118.73 204.023 112.537 206.438 107.565C208.852 102.594 212.063 98.8722 216.068 96.4006C220.102 93.929 224.52 92.6932 229.321 92.6932C232.986 92.6932 236.054 93.3182 238.526 94.5682C240.997 95.7898 242.986 97.3239 244.491 99.1705C246.026 100.989 247.205 102.778 248.028 104.54H248.71V93.5455H266.736V159.639C266.736 165.207 265.372 169.866 262.645 173.616C259.918 177.366 256.139 180.179 251.31 182.054C246.509 183.957 240.983 184.909 234.733 184.909ZM235.116 144.426C238.043 144.426 240.514 143.702 242.531 142.253C244.577 140.776 246.139 138.673 247.219 135.946C248.327 133.19 248.881 129.895 248.881 126.06C248.881 122.224 248.341 118.901 247.261 116.088C246.182 113.247 244.619 111.045 242.574 109.483C240.528 107.92 238.043 107.139 235.116 107.139C232.134 107.139 229.619 107.949 227.574 109.568C225.528 111.159 223.98 113.375 222.929 116.216C221.878 119.057 221.352 122.338 221.352 126.06C221.352 129.838 221.878 133.105 222.929 135.861C224.009 138.588 225.557 140.705 227.574 142.21C229.619 143.687 232.134 144.426 235.116 144.426ZM305.301 160.065C300.33 160.065 295.827 158.787 291.793 156.23C287.787 153.645 284.605 149.852 282.247 144.852C279.918 139.824 278.753 133.659 278.753 126.358C278.753 118.858 279.96 112.622 282.375 107.651C284.79 102.651 288 98.9148 292.006 96.4432C296.04 93.9432 300.457 92.6932 305.259 92.6932C308.923 92.6932 311.977 93.3182 314.42 94.5682C316.892 95.7898 318.881 97.3239 320.386 99.1705C321.92 100.989 323.085 102.778 323.881 104.54H324.435V71.7273H342.545V159H324.648V148.517H323.881C323.028 150.335 321.821 152.139 320.259 153.929C318.724 155.69 316.722 157.153 314.25 158.318C311.807 159.483 308.824 160.065 305.301 160.065ZM311.054 145.619C313.98 145.619 316.452 144.824 318.469 143.233C320.514 141.614 322.077 139.355 323.156 136.457C324.264 133.56 324.818 130.165 324.818 126.273C324.818 122.381 324.278 119 323.199 116.131C322.119 113.261 320.557 111.045 318.511 109.483C316.466 107.92 313.98 107.139 311.054 107.139C308.071 107.139 305.557 107.949 303.511 109.568C301.466 111.187 299.918 113.432 298.866 116.301C297.815 119.17 297.29 122.494 297.29 126.273C297.29 130.08 297.815 133.446 298.866 136.372C299.946 139.27 301.494 141.543 303.511 143.19C305.557 144.81 308.071 145.619 311.054 145.619ZM373.92 140.165L373.962 118.389H376.604L397.57 93.5455H418.408L390.241 126.443H385.937L373.92 140.165ZM357.471 159V71.7273H375.624V159H357.471ZM398.38 159L379.119 130.491L391.221 117.665L419.644 159H398.38Z"/>
</mask>
<path d="M234.733 184.909C228.852 184.909 223.81 184.099 219.605 182.48C215.429 180.889 212.105 178.716 209.634 175.96C207.162 173.205 205.557 170.108 204.818 166.67L221.608 164.412C222.119 165.719 222.929 166.94 224.037 168.077C225.145 169.213 226.608 170.122 228.426 170.804C230.273 171.514 232.517 171.869 235.159 171.869C239.108 171.869 242.361 170.903 244.918 168.972C247.503 167.068 248.795 163.872 248.795 159.384V147.409H248.028C247.233 149.227 246.04 150.946 244.449 152.565C242.858 154.185 240.812 155.506 238.312 156.528C235.812 157.551 232.83 158.062 229.364 158.062C224.449 158.062 219.974 156.926 215.94 154.653C211.935 152.352 208.739 148.844 206.352 144.128C203.994 139.384 202.815 133.389 202.815 126.145C202.815 118.73 204.023 112.537 206.438 107.565C208.852 102.594 212.063 98.8722 216.068 96.4006C220.102 93.929 224.52 92.6932 229.321 92.6932C232.986 92.6932 236.054 93.3182 238.526 94.5682C240.997 95.7898 242.986 97.3239 244.491 99.1705C246.026 100.989 247.205 102.778 248.028 104.54H248.71V93.5455H266.736V159.639C266.736 165.207 265.372 169.866 262.645 173.616C259.918 177.366 256.139 180.179 251.31 182.054C246.509 183.957 240.983 184.909 234.733 184.909ZM235.116 144.426C238.043 144.426 240.514 143.702 242.531 142.253C244.577 140.776 246.139 138.673 247.219 135.946C248.327 133.19 248.881 129.895 248.881 126.06C248.881 122.224 248.341 118.901 247.261 116.088C246.182 113.247 244.619 111.045 242.574 109.483C240.528 107.92 238.043 107.139 235.116 107.139C232.134 107.139 229.619 107.949 227.574 109.568C225.528 111.159 223.98 113.375 222.929 116.216C221.878 119.057 221.352 122.338 221.352 126.06C221.352 129.838 221.878 133.105 222.929 135.861C224.009 138.588 225.557 140.705 227.574 142.21C229.619 143.687 232.134 144.426 235.116 144.426ZM305.301 160.065C300.33 160.065 295.827 158.787 291.793 156.23C287.787 153.645 284.605 149.852 282.247 144.852C279.918 139.824 278.753 133.659 278.753 126.358C278.753 118.858 279.96 112.622 282.375 107.651C284.79 102.651 288 98.9148 292.006 96.4432C296.04 93.9432 300.457 92.6932 305.259 92.6932C308.923 92.6932 311.977 93.3182 314.42 94.5682C316.892 95.7898 318.881 97.3239 320.386 99.1705C321.92 100.989 323.085 102.778 323.881 104.54H324.435V71.7273H342.545V159H324.648V148.517H323.881C323.028 150.335 321.821 152.139 320.259 153.929C318.724 155.69 316.722 157.153 314.25 158.318C311.807 159.483 308.824 160.065 305.301 160.065ZM311.054 145.619C313.98 145.619 316.452 144.824 318.469 143.233C320.514 141.614 322.077 139.355 323.156 136.457C324.264 133.56 324.818 130.165 324.818 126.273C324.818 122.381 324.278 119 323.199 116.131C322.119 113.261 320.557 111.045 318.511 109.483C316.466 107.92 313.98 107.139 311.054 107.139C308.071 107.139 305.557 107.949 303.511 109.568C301.466 111.187 299.918 113.432 298.866 116.301C297.815 119.17 297.29 122.494 297.29 126.273C297.29 130.08 297.815 133.446 298.866 136.372C299.946 139.27 301.494 141.543 303.511 143.19C305.557 144.81 308.071 145.619 311.054 145.619ZM373.92 140.165L373.962 118.389H376.604L397.57 93.5455H418.408L390.241 126.443H385.937L373.92 140.165ZM357.471 159V71.7273H375.624V159H357.471ZM398.38 159L379.119 130.491L391.221 117.665L419.644 159H398.38Z" fill="white"/>
<path d="M219.605 182.48L219.965 181.547L219.961 181.546L219.605 182.48ZM209.634 175.96L208.889 176.628L209.634 175.96ZM204.818 166.67L204.685 165.679L203.613 165.824L203.84 166.881L204.818 166.67ZM221.608 164.412L222.539 164.048L222.253 163.316L221.475 163.421L221.608 164.412ZM224.037 168.077L224.753 167.379L224.037 168.077ZM228.426 170.804L228.785 169.871L228.777 169.868L228.426 170.804ZM244.918 168.972L244.325 168.166L244.315 168.174L244.918 168.972ZM248.795 147.409H249.795V146.409H248.795V147.409ZM248.028 147.409V146.409H247.374L247.112 147.008L248.028 147.409ZM244.449 152.565L245.162 153.266L244.449 152.565ZM215.94 154.653L215.442 155.521L215.449 155.525L215.94 154.653ZM206.352 144.128L205.457 144.573L205.46 144.579L206.352 144.128ZM206.438 107.565L205.538 107.128L206.438 107.565ZM216.068 96.4006L215.546 95.5479L215.543 95.5495L216.068 96.4006ZM238.526 94.5682L238.074 95.4606L238.082 95.4647L238.526 94.5682ZM244.491 99.1705L243.716 99.8024L243.722 99.8089L243.727 99.8153L244.491 99.1705ZM248.028 104.54L247.123 104.963L247.392 105.54H248.028V104.54ZM248.71 104.54V105.54H249.71V104.54H248.71ZM248.71 93.5455V92.5455H247.71V93.5455H248.71ZM266.736 93.5455H267.736V92.5455H266.736V93.5455ZM262.645 173.616L261.836 173.028L262.645 173.616ZM251.31 182.054L250.948 181.122L250.941 181.124L251.31 182.054ZM242.531 142.253L243.115 143.065L243.117 143.064L242.531 142.253ZM247.219 135.946L246.291 135.573L246.289 135.578L247.219 135.946ZM247.261 116.088L246.327 116.443L246.328 116.446L247.261 116.088ZM227.574 109.568L228.188 110.358L228.195 110.352L227.574 109.568ZM222.929 116.216L223.867 116.563L222.929 116.216ZM222.929 135.861L221.995 136.217L221.999 136.229L222.929 135.861ZM227.574 142.21L226.976 143.012L226.982 143.016L226.988 143.021L227.574 142.21ZM234.733 184.909V183.909C228.94 183.909 224.025 183.111 219.965 181.547L219.605 182.48L219.246 183.413C223.594 185.088 228.765 185.909 234.733 185.909V184.909ZM219.605 182.48L219.961 181.546C215.903 180 212.723 177.907 210.378 175.293L209.634 175.96L208.889 176.628C211.487 179.524 214.955 181.779 219.249 183.415L219.605 182.48ZM209.634 175.96L210.378 175.293C208.016 172.659 206.496 169.719 205.796 166.46L204.818 166.67L203.84 166.881C204.618 170.497 206.308 173.75 208.889 176.628L209.634 175.96ZM204.818 166.67L204.951 167.662L221.741 165.403L221.608 164.412L221.475 163.421L204.685 165.679L204.818 166.67ZM221.608 164.412L220.677 164.776C221.243 166.223 222.132 167.555 223.321 168.775L224.037 168.077L224.753 167.379C223.726 166.325 222.996 165.215 222.539 164.048L221.608 164.412ZM224.037 168.077L223.321 168.775C224.552 170.037 226.149 171.018 228.075 171.74L228.426 170.804L228.777 169.868C227.067 169.226 225.738 168.389 224.753 167.379L224.037 168.077ZM228.426 170.804L228.067 171.737C230.06 172.504 232.433 172.869 235.159 172.869V171.869V170.869C232.601 170.869 230.486 170.525 228.785 169.871L228.426 170.804ZM235.159 171.869V172.869C239.274 172.869 242.753 171.86 245.52 169.769L244.918 168.972L244.315 168.174C241.969 169.946 238.942 170.869 235.159 170.869V171.869ZM244.918 168.972L245.511 169.777C248.444 167.617 249.795 164.055 249.795 159.384H248.795H247.795C247.795 163.69 246.562 166.519 244.325 168.166L244.918 168.972ZM248.795 159.384H249.795V147.409H248.795H247.795V159.384H248.795ZM248.795 147.409V146.409H248.028V147.409V148.409H248.795V147.409ZM248.028 147.409L247.112 147.008C246.372 148.7 245.253 150.32 243.736 151.865L244.449 152.565L245.162 153.266C246.826 151.572 248.094 149.754 248.945 147.81L248.028 147.409ZM244.449 152.565L243.736 151.865C242.256 153.37 240.332 154.622 237.934 155.603L238.312 156.528L238.691 157.454C241.293 156.389 243.46 154.999 245.162 153.266L244.449 152.565ZM238.312 156.528L237.934 155.603C235.583 156.565 232.735 157.062 229.364 157.062V158.062V159.062C232.924 159.062 236.042 158.538 238.691 157.454L238.312 156.528ZM229.364 158.062V157.062C224.61 157.062 220.306 155.965 216.431 153.782L215.94 154.653L215.449 155.525C219.643 157.887 224.288 159.062 229.364 159.062V158.062ZM215.94 154.653L216.438 153.786C212.625 151.596 209.556 148.244 207.245 143.676L206.352 144.128L205.46 144.579C207.921 149.443 211.244 153.109 215.442 155.521L215.94 154.653ZM206.352 144.128L207.248 143.683C204.979 139.118 203.815 133.289 203.815 126.145H202.815H201.815C201.815 133.49 203.01 139.649 205.457 144.573L206.352 144.128ZM202.815 126.145H203.815C203.815 118.832 205.007 112.799 207.337 108.002L206.438 107.565L205.538 107.128C203.039 112.274 201.815 118.628 201.815 126.145H202.815ZM206.438 107.565L207.337 108.002C209.684 103.171 212.776 99.6072 216.593 97.2516L216.068 96.4006L215.543 95.5495C211.349 98.1371 208.021 102.016 205.538 107.128L206.438 107.565ZM216.068 96.4006L216.591 97.2533C220.465 94.8795 224.701 93.6932 229.321 93.6932V92.6932V91.6932C224.338 91.6932 219.74 92.9785 215.546 95.5479L216.068 96.4006ZM229.321 92.6932V93.6932C232.878 93.6932 235.78 94.3004 238.074 95.4605L238.526 94.5682L238.977 93.6758C236.328 92.336 233.094 91.6932 229.321 91.6932V92.6932ZM238.526 94.5682L238.082 95.4647C240.446 96.6327 242.314 98.0828 243.716 99.8024L244.491 99.1705L245.266 98.5385C243.657 96.5649 241.548 94.9468 238.969 93.6717L238.526 94.5682ZM244.491 99.1705L243.727 99.8153C245.217 101.581 246.343 103.297 247.123 104.963L248.028 104.54L248.934 104.116C248.066 102.26 246.834 100.397 245.256 98.5256L244.491 99.1705ZM248.028 104.54V105.54H248.71V104.54V103.54H248.028V104.54ZM248.71 104.54H249.71V93.5455H248.71H247.71V104.54H248.71ZM248.71 93.5455V94.5455H266.736V93.5455V92.5455H248.71V93.5455ZM266.736 93.5455H265.736V159.639H266.736H267.736V93.5455H266.736ZM266.736 159.639H265.736C265.736 165.04 264.416 169.481 261.836 173.028L262.645 173.616L263.454 174.205C266.329 170.252 267.736 165.375 267.736 159.639H266.736ZM262.645 173.616L261.836 173.028C259.235 176.605 255.62 179.308 250.948 181.122L251.31 182.054L251.672 182.986C256.658 181.05 260.601 178.128 263.454 174.205L262.645 173.616ZM251.31 182.054L250.941 181.124C246.279 182.973 240.883 183.909 234.733 183.909V184.909V185.909C241.083 185.909 246.738 184.942 251.678 182.984L251.31 182.054ZM235.116 144.426V145.426C238.214 145.426 240.899 144.657 243.115 143.065L242.531 142.253L241.948 141.441C240.13 142.747 237.872 143.426 235.116 143.426V144.426ZM242.531 142.253L243.117 143.064C245.341 141.457 247.01 139.189 248.149 136.314L247.219 135.946L246.289 135.578C245.268 138.157 243.813 140.094 241.946 141.442L242.531 142.253ZM247.219 135.946L248.147 136.319C249.314 133.416 249.881 129.987 249.881 126.06H248.881H247.881C247.881 129.803 247.34 132.965 246.291 135.573L247.219 135.946ZM248.881 126.06H249.881C249.881 122.134 249.329 118.683 248.195 115.73L247.261 116.088L246.328 116.446C247.353 119.118 247.881 122.315 247.881 126.06H248.881ZM247.261 116.088L248.196 115.733C247.063 112.75 245.399 110.383 243.181 108.688L242.574 109.483L241.967 110.278C243.839 111.708 245.301 113.745 246.327 116.443L247.261 116.088ZM242.574 109.483L243.181 108.688C240.938 106.975 238.231 106.139 235.116 106.139V107.139V108.139C237.855 108.139 240.119 108.866 241.967 110.278L242.574 109.483ZM235.116 107.139V106.139C231.942 106.139 229.2 107.005 226.953 108.784L227.574 109.568L228.195 110.352C230.038 108.892 232.325 108.139 235.116 108.139V107.139ZM227.574 109.568L226.96 108.779C224.744 110.502 223.096 112.883 221.991 115.869L222.929 116.216L223.867 116.563C224.864 113.867 226.313 111.816 228.188 110.358L227.574 109.568ZM222.929 116.216L221.991 115.869C220.891 118.843 220.352 122.246 220.352 126.06H221.352H222.352C222.352 122.43 222.865 119.271 223.867 116.563L222.929 116.216ZM221.352 126.06H220.352C220.352 129.927 220.89 133.321 221.995 136.217L222.929 135.861L223.863 135.504C222.866 132.89 222.352 129.749 222.352 126.06H221.352ZM222.929 135.861L221.999 136.229C223.135 139.1 224.787 141.378 226.976 143.012L227.574 142.21L228.172 141.409C226.327 140.031 224.882 138.077 223.859 135.493L222.929 135.861ZM227.574 142.21L226.988 143.021C229.234 144.642 231.963 145.426 235.116 145.426V144.426V143.426C232.304 143.426 230.005 142.733 228.159 141.4L227.574 142.21ZM291.793 156.23L291.25 157.07L291.257 157.075L291.793 156.23ZM282.247 144.852L281.34 145.273L281.343 145.279L282.247 144.852ZM282.375 107.651L283.275 108.087L283.275 108.085L282.375 107.651ZM292.006 96.4432L292.531 97.2942L292.532 97.2932L292.006 96.4432ZM314.42 94.5682L313.965 95.4585L313.977 95.4647L314.42 94.5682ZM320.386 99.1705L319.611 99.8024L319.617 99.8089L319.622 99.8153L320.386 99.1705ZM323.881 104.54L322.969 104.951L323.235 105.54H323.881V104.54ZM324.435 104.54V105.54H325.435V104.54H324.435ZM324.435 71.7273V70.7273H323.435V71.7273H324.435ZM342.545 71.7273H343.545V70.7273H342.545V71.7273ZM342.545 159V160H343.545V159H342.545ZM324.648 159H323.648V160H324.648V159ZM324.648 148.517H325.648V147.517H324.648V148.517ZM323.881 148.517V147.517H323.245L322.975 148.093L323.881 148.517ZM320.259 153.929L319.505 153.271L319.504 153.272L320.259 153.929ZM314.25 158.318L313.824 157.414L313.82 157.416L314.25 158.318ZM318.469 143.233L319.088 144.018L319.089 144.017L318.469 143.233ZM323.156 136.457L322.222 136.1L322.219 136.108L323.156 136.457ZM323.199 116.131L324.135 115.779L323.199 116.131ZM303.511 109.568L302.891 108.784L303.511 109.568ZM298.866 136.372L297.925 136.71L297.929 136.721L298.866 136.372ZM303.511 143.19L302.879 143.965L302.885 143.97L302.891 143.974L303.511 143.19ZM305.301 160.065V159.065C300.511 159.065 296.195 157.837 292.328 155.385L291.793 156.23L291.257 157.075C295.458 159.737 300.148 161.065 305.301 161.065V160.065ZM291.793 156.23L292.335 155.39C288.51 152.921 285.443 149.284 283.152 144.426L282.247 144.852L281.343 145.279C283.767 150.42 287.064 154.368 291.25 157.07L291.793 156.23ZM282.247 144.852L283.155 144.432C280.902 139.57 279.753 133.558 279.753 126.358H278.753H277.753C277.753 133.76 278.933 140.078 281.34 145.273L282.247 144.852ZM278.753 126.358H279.753C279.753 118.958 280.945 112.883 283.275 108.087L282.375 107.651L281.475 107.214C278.975 112.361 277.753 118.758 277.753 126.358H278.753ZM282.375 107.651L283.275 108.085C285.622 103.226 288.715 99.6489 292.531 97.2942L292.006 96.4432L291.481 95.5921C287.285 98.1807 283.957 102.075 281.475 107.216L282.375 107.651ZM292.006 96.4432L292.532 97.2932C296.406 94.8924 300.641 93.6932 305.259 93.6932V92.6932V91.6932C300.274 91.6932 295.673 92.9939 291.479 95.5932L292.006 96.4432ZM305.259 92.6932V93.6932C308.816 93.6932 311.702 94.3006 313.965 95.4584L314.42 94.5682L314.876 93.6779C312.253 92.3357 309.031 91.6932 305.259 91.6932V92.6932ZM314.42 94.5682L313.977 95.4647C316.341 96.6327 318.209 98.0828 319.611 99.8024L320.386 99.1705L321.161 98.5385C319.552 96.5649 317.443 94.9468 314.864 93.6717L314.42 94.5682ZM320.386 99.1705L319.622 99.8153C321.11 101.579 322.219 103.291 322.969 104.951L323.881 104.54L324.792 104.128C323.951 102.266 322.731 100.399 321.151 98.5256L320.386 99.1705ZM323.881 104.54V105.54H324.435V104.54V103.54H323.881V104.54ZM324.435 104.54H325.435V71.7273H324.435H323.435V104.54H324.435ZM324.435 71.7273V72.7273H342.545V71.7273V70.7273H324.435V71.7273ZM342.545 71.7273H341.545V159H342.545H343.545V71.7273H342.545ZM342.545 159V158H324.648V159V160H342.545V159ZM324.648 159H325.648V148.517H324.648H323.648V159H324.648ZM324.648 148.517V147.517H323.881V148.517V149.517H324.648V148.517ZM323.881 148.517L322.975 148.093C322.169 149.813 321.017 151.539 319.505 153.271L320.259 153.929L321.012 154.587C322.625 152.739 323.888 150.858 324.786 148.941L323.881 148.517ZM320.259 153.929L319.504 153.272C318.075 154.913 316.191 156.298 313.824 157.414L314.25 158.318L314.676 159.223C317.252 158.009 319.373 156.468 321.013 154.586L320.259 153.929ZM314.25 158.318L313.82 157.416C311.545 158.5 308.718 159.065 305.301 159.065V160.065V161.065C308.93 161.065 312.069 160.466 314.68 159.221L314.25 158.318ZM311.054 145.619V146.619C314.172 146.619 316.87 145.767 319.088 144.018L318.469 143.233L317.849 142.448C316.033 143.88 313.788 144.619 311.054 144.619V145.619ZM318.469 143.233L319.089 144.017C321.303 142.265 322.962 139.843 324.093 136.806L323.156 136.457L322.219 136.108C321.191 138.867 319.726 140.962 317.848 142.449L318.469 143.233ZM323.156 136.457L324.09 136.815C325.251 133.778 325.818 130.257 325.818 126.273H324.818H323.818C323.818 130.073 323.277 133.341 322.222 136.1L323.156 136.457ZM324.818 126.273H325.818C325.818 122.291 325.266 118.786 324.135 115.779L323.199 116.131L322.263 116.483C323.29 119.214 323.818 122.47 323.818 126.273H324.818ZM323.199 116.131L324.135 115.779C323.002 112.768 321.339 110.385 319.118 108.688L318.511 109.483L317.904 110.278C319.774 111.706 321.237 113.755 322.263 116.483L323.199 116.131ZM318.511 109.483L319.118 108.688C316.875 106.975 314.168 106.139 311.054 106.139V107.139V108.139C313.792 108.139 316.057 108.866 317.904 110.278L318.511 109.483ZM311.054 107.139V106.139C307.88 106.139 305.138 107.005 302.891 108.784L303.511 109.568L304.132 110.352C305.976 108.892 308.262 108.139 311.054 108.139V107.139ZM303.511 109.568L302.891 108.784C300.677 110.536 299.031 112.945 297.927 115.957L298.866 116.301L299.805 116.645C300.804 113.919 302.254 111.839 304.132 110.352L303.511 109.568ZM298.866 116.301L297.927 115.957C296.828 118.959 296.29 122.404 296.29 126.273H297.29H298.29C298.29 122.585 298.803 119.382 299.805 116.645L298.866 116.301ZM297.29 126.273H296.29C296.29 130.17 296.828 133.654 297.925 136.71L298.866 136.372L299.808 136.034C298.803 133.238 298.29 129.989 298.29 126.273H297.29ZM298.866 136.372L297.929 136.721C299.059 139.754 300.701 142.185 302.879 143.965L303.511 143.19L304.144 142.416C302.288 140.9 300.833 138.786 299.804 136.023L298.866 136.372ZM303.511 143.19L302.891 143.974C305.138 145.753 307.88 146.619 311.054 146.619V145.619V144.619C308.262 144.619 305.976 143.866 304.132 142.406L303.511 143.19ZM373.92 140.165L372.92 140.163L372.915 142.83L374.672 140.824L373.92 140.165ZM373.962 118.389V117.389H372.964L372.962 118.387L373.962 118.389ZM376.604 118.389V119.389H377.069L377.369 119.034L376.604 118.389ZM397.57 93.5455V92.5455H397.106L396.806 92.9005L397.57 93.5455ZM418.408 93.5455L419.168 94.1958L420.581 92.5455H418.408V93.5455ZM390.241 126.443V127.443H390.701L391 127.094L390.241 126.443ZM385.937 126.443V125.443H385.483L385.185 125.784L385.937 126.443ZM357.471 159H356.471V160H357.471V159ZM357.471 71.7273V70.7273H356.471V71.7273H357.471ZM375.624 71.7273H376.624V70.7273H375.624V71.7273ZM375.624 159V160H376.624V159H375.624ZM398.38 159L397.551 159.56L397.849 160H398.38V159ZM379.119 130.491L378.391 129.805L377.842 130.388L378.29 131.051L379.119 130.491ZM391.221 117.665L392.045 117.098L391.343 116.078L390.494 116.979L391.221 117.665ZM419.644 159V160H421.545L420.468 158.433L419.644 159ZM373.92 140.165L374.92 140.167L374.962 118.391L373.962 118.389L372.962 118.387L372.92 140.163L373.92 140.165ZM373.962 118.389V119.389H376.604V118.389V117.389H373.962V118.389ZM376.604 118.389L377.369 119.034L398.335 94.1904L397.57 93.5455L396.806 92.9005L375.84 117.744L376.604 118.389ZM397.57 93.5455V94.5455H418.408V93.5455V92.5455H397.57V93.5455ZM418.408 93.5455L417.649 92.8951L389.481 125.793L390.241 126.443L391 127.094L419.168 94.1958L418.408 93.5455ZM390.241 126.443V125.443H385.937V126.443V127.443H390.241V126.443ZM385.937 126.443L385.185 125.784L373.167 139.506L373.92 140.165L374.672 140.824L386.689 127.102L385.937 126.443ZM357.471 159H358.471V71.7273H357.471H356.471V159H357.471ZM357.471 71.7273V72.7273H375.624V71.7273V70.7273H357.471V71.7273ZM375.624 71.7273H374.624V159H375.624H376.624V71.7273H375.624ZM375.624 159V158H357.471V159V160H375.624V159ZM398.38 159L399.209 158.44L379.947 129.932L379.119 130.491L378.29 131.051L397.551 159.56L398.38 159ZM379.119 130.491L379.846 131.178L391.948 118.351L391.221 117.665L390.494 116.979L378.391 129.805L379.119 130.491ZM391.221 117.665L390.397 118.231L418.82 159.567L419.644 159L420.468 158.433L392.045 117.098L391.221 117.665ZM419.644 159V158H398.38V159V160H419.644V159Z" fill="black" mask="url(#path-4-outside-1_1_26)"/>
</g>
<defs>
<clipPath id="clip0_1_26">
<rect width="504" height="243" fill="white"/>
</clipPath>
</defs>
</svg>
